<svg xmlns="http://www.w3.org/2000/svg" width="817" height="443"><g fill="#27AE60"><rect x="108.833" y="336.547" width="38.663" height="38.664"/><rect x="54.701" y="336.547" width="38.667" height="38.664"/><path d="M815 0h-815v441h815v-441zm-695 244h27v39h-27v-39zm-78 0h24v39h-24v-39zm116 171h-131v-20.914l131 7.051v13.863zm0-24h-131v-104h131v104zm93 19h-18v-29h-21v29h-18v-75h18v29h21v-29h18v75zm62.487 0l-10.721-29.535-14.944.078-10.811 29.457h-19.426l27.832-75h19.76l27.732 75h-19.422zm36.983-25.541c.67 1.628 1.834 3.056 3.029 4.284 1.196 1.229 2.7 2.202 4.28 2.917 1.58.713 3.328 1.071 5.121 1.071 1.789 0 3.495-.358 5.059-1.071 1.566-.715 2.948-1.688 4.125-2.917 1.177-1.229 2.116-2.295 2.8-3.923.685-1.627 1.035-2.82 1.035-4.82h18.092c0 4-.756 7.603-2.268 11.272-1.5 3.673-3.727 6.789-6.677 9.713-2.942 2.923-6.302 5.638-10.069 7.198-3.768 1.562-7.771 2.816-12.012 2.816h-.11c-4.238 0-8.228-1.344-11.961-2.906-3.731-1.561-7.105-4.085-10.123-7.008-2.805-2.857-5.401-6.211-6.943-9.785-1.542-3.568-2.848-7.474-2.848-11.427v-15.696c0-4.089 1.294-7.932 2.82-11.539 1.521-3.604 3.918-6.833 6.758-9.692 3.018-2.923 6.5-4.587 10.23-6.165 3.734-1.578 7.829-1.781 12.067-1.781h.11c4.24 0 8.244.195 12.012 1.756 3.768 1.562 7.127 3.527 10.069 6.483 2.951 2.924 5.177 6.339 6.677 10.011 1.512 3.67 2.268 7.75 2.268 11.75h-18.092c0-2-.343-3.825-1.027-5.47-.685-1.643-1.616-3.211-2.793-4.441-1.176-1.229-2.537-2.267-4.082-2.979-1.546-.715-3.233-1.106-5.059-1.106-1.793 0-3.48.342-5.062 1.057-1.58.714-2.965 1.677-4.16 2.906s-2.596 2.655-3.266 4.28c-.668 1.629-1.47 3.369-1.47 5.229v14.803c0 1.825.802 3.553 1.47 5.18zm106.321 25.541h-18.088l-20.703-21.754v21.754h-19v-75h19v20.604l20.805-20.604h18.088l-34.123 37.6 34.021 37.4zm56.209-58h-18v58h-18v-58h-18v-17h54v17zm27 58h-18v-75h18v75zm36.822 0l-27.953-75h18.043l19.039 51.702 18.924-51.702h18.037l-27.818 75h-18.272zm89.149 0l-10.721-29.535-14.941.078-10.813 29.457h-19.422l27.83-75h19.762l27.729 75h-19.424zm65.029-58h-18v58h-18v-58h-19v-17h55v17zm48 12v17h-23v12h31v17h-49v-75h49v17h-31v12h23z"/></g><g fill="#2ECC71"><rect x="111.135" y="338.547" width="38.663" height="38.664"/><rect x="57.003" y="338.547" width="38.667" height="38.664"/><path d="M817 2h-815v441h815v-441zm-695 244h27v39h-27v-39zm-78 0h24v39h-24v-39zm116 171h-131v-20.914l131 7.051v13.863zm0-24h-131v-104h131v104zm93 19h-18v-29h-21v29h-18v-75h18v29h21v-29h18v75zm62.789 0l-10.721-29.535-14.944.078-10.811 29.457h-19.426l27.832-75h19.76l27.732 75h-19.422zm36.832-25.541c.67 1.628 1.909 3.056 3.104 4.284 1.196 1.229 2.737 2.202 4.317 2.917 1.58.713 3.347 1.071 5.14 1.071 1.789 0 3.504-.358 5.069-1.071 1.566-.715 2.953-1.688 4.129-2.917 1.177-1.229 2.118-2.295 2.803-3.923.685-1.627 1.037-2.82 1.037-4.82h18.091c0 4-.756 7.603-2.266 11.272-1.502 3.673-3.729 6.789-6.678 9.713-2.943 2.923-6.302 5.638-10.07 7.198-3.768 1.562-7.771 2.816-12.012 2.816h-.11c-4.238 0-8.228-1.344-11.961-2.906-3.731-1.561-7.105-4.085-10.123-7.008-2.805-2.857-5.552-6.211-7.094-9.785-1.542-3.568-2.999-7.474-2.999-11.427v-15.696c0-4.089 1.445-7.932 2.972-11.539 1.521-3.604 3.993-6.833 6.833-9.692 3.018-2.923 6.537-4.587 10.268-6.165 3.734-1.578 7.866-1.781 12.104-1.781h.11c4.24 0 8.244.195 12.012 1.756 3.768 1.562 7.127 3.527 10.07 6.483 2.949 2.924 5.176 6.339 6.678 10.011 1.51 3.67 2.266 7.75 2.266 11.75h-18.091c0-2-.343-3.825-1.027-5.47-.685-1.643-1.616-3.211-2.793-4.441-1.176-1.229-2.537-2.267-4.082-2.979-1.546-.715-3.233-1.106-5.059-1.106-1.793 0-3.48.342-5.062 1.057-1.58.714-2.965 1.677-4.16 2.906s-2.746 2.655-3.416 4.28c-.668 1.629-1.621 3.369-1.621 5.229v14.803c0 1.825.953 3.553 1.621 5.18zm106.473 25.541h-18.088l-21.006-21.754v21.754h-19v-75h19v20.604l21.107-20.604h18.088l-34.123 37.6 34.022 37.4zm55.906-58h-18v58h-18v-58h-18v-17h54v17zm27 58h-18v-75h18v75zm37.125 0l-27.953-75h18.043l19.039 51.702 18.924-51.702h18.037l-27.818 75h-18.272zm89.148 0l-10.721-29.535-14.941.078-10.812 29.457h-19.422l27.83-75h19.762l27.729 75h-19.425zm64.727-58h-18v58h-18v-58h-19v-17h55v17zm48 12v17h-23v12h31v17h-49v-75h49v17h-31v12h23z"/></g></svg>