<svg xmlns="http://www.w3.org/2000/svg" width="583" height="157"><rect x="7.605" y="1" fill="#fff" stroke="#000" stroke-miterlimit="10" width="574.395" height="148.087"/><g fill="#2ECC71"><path d="M0 0v157h583v-157h-583zm85 17h19v27h-19v-27zm-56 0h18v27h-18v-27zm84 121h-94v-15.11l94 5.038v10.072zm0-16h-94v-74h94v74zm66 13h-12v-21h-15v21h-14v-53h14v20h15v-20h12v53zm45.843 0l-7.661-21.475-10.68.242-7.725 21.233h-13.882l19.889-53h14.12l19.817 53h-13.878zm25.818-18.99c.479 1.163 1.615 2.185 2.47 3.062.854.879 2.081 1.574 3.21 2.085 1.129.51 2.455.766 3.736.766 1.278 0 2.534-.256 3.652-.766 1.12-.511 2.126-1.206 2.967-2.085.841-.877 1.521-1.053 2.011-2.215.488-1.162.75-.856.75-2.856h12.928c0 3-.541 4.844-1.619 7.466-1.074 2.626-2.665 4.559-4.771 6.647-2.104 2.088-4.505 4.394-7.197 5.509-2.691 1.117-5.553 2.378-8.583 2.378h-.078c-3.03 0-5.88-1.472-8.548-2.589-2.667-1.115-5.078-3.176-7.233-5.264-2.004-2.043-4.538-4.565-5.641-7.119-1.103-2.551-2.714-5.469-2.714-8.295v-11.217c0-2.921 1.604-5.668 2.692-8.246 1.088-2.574 3.142-4.882 5.17-6.926 2.156-2.088 4.813-2.611 7.479-3.738 2.668-1.127 5.763-.606 8.793-.606h.078c3.03 0 5.892-.526 8.583.588 2.692 1.115 5.094 2.187 7.197 4.3 2.106 2.09 3.697 5.31 4.771 7.935 1.078 2.623 1.619 5.178 1.619 9.178h-12.928c0-3-.245-3.681-.734-4.854-.489-1.175-1.155-2.77-1.996-3.648-.84-.878-1.812-1.857-2.917-2.367-1.104-.511-2.311-.91-3.615-.91-1.28 0-2.486.188-3.617.696-1.13.512-2.119 1.168-2.973 2.047-.854.878-2.465 1.884-2.943 3.045-.478 1.163-1.661 2.392-1.661 3.72v10.58c.001 1.301 1.185 2.536 1.662 3.699zm76.587 18.99h-12.926l-16.322-16.284v16.284h-13v-53h13v13.39l16.395-13.39h12.926l-24.385 26.57 24.312 26.43zm38.752-41h-13v41h-12v-41h-13v-12h38v12zm19 41h-12v-53h12v53zm28.021 0l-19.974-53h12.893l13.605 36.946 13.523-36.946h12.892l-19.88 53h-13.059zm63.707 0l-7.661-21.475-10.677.242-7.728 21.233h-13.879l19.888-53h14.122l19.812 53h-13.877zm46.272-41h-13v41h-13v-41h-13v-12h39v12zm39 0h-21v8h15v12h-15v9h21v12h-34v-53h34v12z"/><rect x="78.597" y="81.636" width="27.628" height="27.63"/><rect x="39.914" y="81.636" width="27.632" height="27.63"/></g></svg>