<svg xmlns="http://www.w3.org/2000/svg" width="40.541" height="40.542"><circle fill="#208E4E" cx="20.271" cy="20.271" r="20.271" class="background"/><path fill="#2ECC71" d="M30.032 9.386h-19.522c-.669 0-1.211.542-1.211 1.211v19.523c0 .669.542 1.211 1.211 1.211h10.51v-8.498h-2.86v-3.312h2.859v-2.442c0-2.835 1.731-4.378 4.26-4.378 1.212 0 2.253.09 2.556.13v2.962l-1.753.001c-1.376 0-1.642.654-1.642 1.612v2.115h3.279l-.427 3.312h-2.852v8.498h5.592c.669 0 1.211-.542 1.211-1.211v-19.523c0-.669-.542-1.211-1.211-1.211z" class="logo"/></svg>