<svg xmlns="http://www.w3.org/2000/svg" xmlns:xlink="http://www.w3.org/1999/xlink" width="40.541" height="40.542"><circle fill="#208E4E" cx="20.271" cy="20.271" r="20.271" class="background"/><g class="logo"><defs><rect id="a" x="9.3" y="9.386" width="21.942" height="21.943"/></defs><clipPath id="b"><use xlink:href="#a" overflow="visible"/></clipPath><path clip-path="url(#b)" fill-rule="evenodd" clip-rule="evenodd" fill="#2ECC71" d="M28.678 18.653h-1.907c.14.54.222 1.103.222 1.686 0 3.723-3.018 6.741-6.74 6.741s-6.74-3.018-6.74-6.741c0-.583.082-1.146.221-1.686h-1.907v9.268c0 .466.377.843.843.843h15.165c.466 0 .843-.377.843-.843v-9.268zm0-5.897c0-.465-.377-.842-.843-.842h-2.527c-.466 0-.843.377-.843.842v2.529c0 .464.377.842.843.842h2.527c.466 0 .843-.378.843-.842v-2.529zm-8.426 3.371c-2.327 0-4.212 1.886-4.212 4.212 0 2.327 1.886 4.212 4.212 4.212s4.212-1.886 4.212-4.212c.001-2.326-1.885-4.212-4.212-4.212m8.426 15.165h-16.851c-1.396 0-2.527-1.132-2.527-2.528v-16.85c0-1.396 1.131-2.527 2.527-2.527h16.851c1.396 0 2.527 1.132 2.527 2.527v16.851c0 1.396-1.131 2.527-2.527 2.527"/></g></svg>