<svg xmlns="http://www.w3.org/2000/svg" width="40.541" height="40.542"><circle fill="#208E4E" cx="20.271" cy="20.271" r="20.271" class="background"/><path fill="#2ECC71" d="M31.799 13.208c-.849.376-1.761.631-2.718.745.978-.585 1.727-1.512 2.081-2.617-.914.542-1.927.937-3.004 1.148-.863-.919-2.091-1.494-3.453-1.494-2.612 0-4.73 2.118-4.73 4.729 0 .372.042.732.123 1.078-3.932-.197-7.417-2.08-9.75-4.941-.408.699-.641 1.511-.641 2.378 0 1.641.836 3.089 2.105 3.938-.776-.024-1.505-.237-2.143-.592v.06c0 2.292 1.63 4.203 3.794 4.637-.396.108-.814.168-1.245.168-.305 0-.602-.03-.89-.087.602 1.88 2.349 3.247 4.417 3.286-1.618 1.268-3.658 2.024-5.874 2.024-.382 0-.758-.022-1.129-.065 2.094 1.341 4.581 2.125 7.252 2.125 8.698 0 13.458-7.209 13.458-13.458l-.015-.612c.925-.668 1.727-1.501 2.362-2.45z" class="logo"/></svg>