<?xml version="1.0" encoding="utf-8"?>
<!-- Generator: Adobe Illustrator 16.0.0, SVG Export Plug-In . SVG Version: 6.00 Build 0)  -->
<!DOCTYPE svg PUBLIC "-//W3C//DTD SVG 1.1//EN" "http://www.w3.org/Graphics/SVG/1.1/DTD/svg11.dtd">
<svg version="1.1" xmlns="http://www.w3.org/2000/svg" xmlns:xlink="http://www.w3.org/1999/xlink" x="0px" y="0px"width="40.541px" height="40.542px" viewBox="0 0 40.541 40.542" enable-background="new 0 0 40.541 40.542" xml:space="preserve"><g id="Layer_1" class="background"><circle fill="#208E4E" cx="20.271" cy="20.271" r="20.271"/></g><g class="logo" id="Layer_2"><path id="White_1_" fill="#2ECC71" d="M30.032,9.386H10.51c-0.669,0-1.211,0.542-1.211,1.211V30.12c0,0.669,0.542,1.211,1.211,1.211h10.51v-8.498H18.16v-3.312h2.859v-2.442c0-2.835,1.731-4.378,4.26-4.378c1.212,0,2.253,0.09,2.556,0.13v2.962l-1.753,0.001c-1.376,0-1.642,0.654-1.642,1.612v2.115h3.279l-0.427,3.312H24.44v8.498h5.592c0.669,0,1.211-0.542,1.211-1.211V10.597C31.243,9.928,30.701,9.386,30.032,9.386z"/></g></svg>
