<?xml version="1.0" encoding="utf-8"?>
<!-- Generator: Adobe Illustrator 16.0.0, SVG Export Plug-In . SVG Version: 6.00 Build 0)  -->
<!DOCTYPE svg PUBLIC "-//W3C//DTD SVG 1.1//EN" "http://www.w3.org/Graphics/SVG/1.1/DTD/svg11.dtd">
<svg version="1.1" xmlns="http://www.w3.org/2000/svg" xmlns:xlink="http://www.w3.org/1999/xlink" x="0px" y="0px"
	 width="40.541px" height="40.542px" viewBox="0 0 40.541 40.542" enable-background="new 0 0 40.541 40.542" xml:space="preserve">
<g id="Layer_1">
	<circle fill="#208E4E" cx="20.271" cy="20.271" r="20.271"/>
</g>
<g id="Layer_2">
	<path fill="#2ECC71" d="M31.799,13.208c-0.849,0.376-1.761,0.631-2.718,0.745c0.978-0.585,1.727-1.512,2.081-2.617
		c-0.914,0.542-1.927,0.937-3.004,1.148c-0.863-0.919-2.091-1.494-3.453-1.494c-2.612,0-4.73,2.118-4.73,4.729
		c0,0.372,0.042,0.732,0.123,1.078c-3.932-0.197-7.417-2.08-9.75-4.941c-0.408,0.699-0.641,1.511-0.641,2.378
		c0,1.641,0.836,3.089,2.105,3.938c-0.776-0.024-1.505-0.237-2.143-0.592c0,0.02,0,0.04,0,0.06c0,2.292,1.63,4.203,3.794,4.637
		c-0.396,0.108-0.814,0.168-1.245,0.168c-0.305,0-0.602-0.03-0.89-0.087c0.602,1.88,2.349,3.247,4.417,3.286
		c-1.618,1.268-3.658,2.024-5.874,2.024c-0.382,0-0.758-0.022-1.129-0.065c2.094,1.341,4.581,2.125,7.252,2.125
		c8.698,0,13.458-7.209,13.458-13.458c0-0.205-0.004-0.409-0.015-0.612C30.362,14.99,31.164,14.157,31.799,13.208z"/>
</g>
</svg>
