<?xml version="1.0" encoding="utf-8"?>
<!-- Generator: Adobe Illustrator 16.0.0, SVG Export Plug-In . SVG Version: 6.00 Build 0)  -->
<!DOCTYPE svg PUBLIC "-//W3C//DTD SVG 1.1//EN" "http://www.w3.org/Graphics/SVG/1.1/DTD/svg11.dtd">
<svg version="1.1" id="Layer_1" xmlns="http://www.w3.org/2000/svg" xmlns:xlink="http://www.w3.org/1999/xlink" x="0px" y="0px"
	 width="817px" height="443px" viewBox="0 0 817 443" enable-background="new 0 0 817 443" xml:space="preserve">
<g>
	<g>
		<rect x="108.833" y="336.547" fill="#27AE60" width="38.663" height="38.664"/>
		<rect x="54.701" y="336.547" fill="#27AE60" width="38.667" height="38.664"/>
		<path fill="#27AE60" d="M815,0H0v441h815V0z M120,244h27v39h-27V244z M42,244h24v39H42V244z M158,415H27v-20.914l131,7.051V415z
			 M158,391H27V287h8.527h7.048H67.26h52.885h28.209h7.048H158V391z M251,410h-18v-29h-21v29h-18v-75h18v29h21v-29h18V410z
			 M313.487,410l-10.721-29.535l-14.944,0.078L277.011,410h-19.426l27.832-75h19.76l27.732,75H313.487z M350.47,384.459
			c0.67,1.628,1.834,3.056,3.029,4.284c1.196,1.229,2.7,2.202,4.28,2.917c1.58,0.713,3.328,1.071,5.121,1.071
			c1.789,0,3.495-0.358,5.059-1.071c1.566-0.715,2.948-1.688,4.125-2.917c1.177-1.229,2.116-2.295,2.8-3.923
			c0.685-1.627,1.035-2.82,1.035-4.82h18.092c0,4-0.756,7.603-2.268,11.272c-1.5,3.673-3.727,6.789-6.677,9.713
			c-2.942,2.923-6.302,5.638-10.069,7.198c-3.768,1.562-7.771,2.816-12.012,2.816h-0.11c-4.238,0-8.228-1.344-11.961-2.906
			c-3.731-1.561-7.105-4.085-10.123-7.008c-2.805-2.857-5.401-6.211-6.943-9.785c-1.542-3.568-2.848-7.474-2.848-11.427v-15.696
			c0-4.089,1.294-7.932,2.82-11.539c1.521-3.604,3.918-6.833,6.758-9.692c3.018-2.923,6.5-4.587,10.23-6.165
			c3.734-1.578,7.829-1.781,12.067-1.781h0.11c4.24,0,8.244,0.195,12.012,1.756c3.768,1.562,7.127,3.527,10.069,6.483
			c2.951,2.924,5.177,6.339,6.677,10.011c1.512,3.67,2.268,7.75,2.268,11.75h-18.092c0-2-0.343-3.825-1.027-5.47
			c-0.685-1.643-1.616-3.211-2.793-4.441c-1.176-1.229-2.537-2.267-4.082-2.979c-1.546-0.715-3.233-1.106-5.059-1.106
			c-1.793,0-3.48,0.342-5.062,1.057c-1.58,0.714-2.965,1.677-4.16,2.906s-2.596,2.655-3.266,4.28
			c-0.668,1.629-1.47,3.369-1.47,5.229v14.803C349,381.104,349.802,382.832,350.47,384.459z M456.791,410h-18.088L418,388.246V410
			h-19v-75h19v20.604L438.805,335h18.088l-34.123,37.6L456.791,410z M513,352h-18v58h-18v-58h-18v-17h54V352z M540,410h-18v-75h18
			V410z M576.822,410l-27.953-75h18.043l19.039,51.702L604.875,335h18.037l-27.818,75H576.822z M665.971,410l-10.721-29.535
			l-14.941,0.078L629.496,410h-19.422l27.83-75h19.762l27.729,75H665.971z M731,352h-18v58h-18v-58h-19v-17h55V352z M779,364v17h-23
			v12h31v17h-49v-75h49v17h-31v12H779z"/>
	</g>
	<g>
		<rect x="111.135" y="338.547" fill="#2ECC71" width="38.663" height="38.664"/>
		<rect x="57.003" y="338.547" fill="#2ECC71" width="38.667" height="38.664"/>
		<path fill="#2ECC71" d="M817,2H2v441h815V2z M122,246h27v39h-27V246z M44,246h24v39H44V246z M160,417H29v-20.914l131,7.051V417z
			 M160,393H29V289h8.829h7.048h24.685h52.885h28.209h7.048H160V393z M253,412h-18v-29h-21v29h-18v-75h18v29h21v-29h18V412z
			 M315.789,412l-10.721-29.535l-14.944,0.078L279.313,412h-19.426l27.832-75h19.76l27.732,75H315.789z M352.621,386.459
			c0.67,1.628,1.909,3.056,3.104,4.284c1.196,1.229,2.737,2.202,4.317,2.917c1.58,0.713,3.347,1.071,5.14,1.071
			c1.789,0,3.504-0.358,5.069-1.071c1.566-0.715,2.953-1.688,4.129-2.917c1.177-1.229,2.118-2.295,2.803-3.923
			c0.685-1.627,1.037-2.82,1.037-4.82h18.091c0,4-0.756,7.603-2.266,11.272c-1.502,3.673-3.729,6.789-6.678,9.713
			c-2.943,2.923-6.302,5.638-10.07,7.198c-3.768,1.562-7.771,2.816-12.012,2.816h-0.11c-4.238,0-8.228-1.344-11.961-2.906
			c-3.731-1.561-7.105-4.085-10.123-7.008c-2.805-2.857-5.552-6.211-7.094-9.785c-1.542-3.568-2.999-7.474-2.999-11.427v-15.696
			c0-4.089,1.445-7.932,2.972-11.539c1.521-3.604,3.993-6.833,6.833-9.692c3.018-2.923,6.537-4.587,10.268-6.165
			c3.734-1.578,7.866-1.781,12.104-1.781h0.11c4.24,0,8.244,0.195,12.012,1.756c3.768,1.562,7.127,3.527,10.07,6.483
			c2.949,2.924,5.176,6.339,6.678,10.011c1.51,3.67,2.266,7.75,2.266,11.75h-18.091c0-2-0.343-3.825-1.027-5.47
			c-0.685-1.643-1.616-3.211-2.793-4.441c-1.176-1.229-2.537-2.267-4.082-2.979c-1.546-0.715-3.233-1.106-5.059-1.106
			c-1.793,0-3.48,0.342-5.062,1.057c-1.58,0.714-2.965,1.677-4.16,2.906s-2.746,2.655-3.416,4.28
			c-0.668,1.629-1.621,3.369-1.621,5.229v14.803C351,383.104,351.953,384.832,352.621,386.459z M459.094,412h-18.088L420,390.246
			V412h-19v-75h19v20.604L441.107,337h18.088l-34.123,37.6L459.094,412z M515,354h-18v58h-18v-58h-18v-17h54V354z M542,412h-18v-75
			h18V412z M579.125,412l-27.953-75h18.043l19.039,51.702L607.178,337h18.037l-27.818,75H579.125z M668.273,412l-10.721-29.535
			l-14.941,0.078L631.799,412h-19.422l27.83-75h19.762l27.729,75H668.273z M733,354h-18v58h-18v-58h-19v-17h55V354z M781,366v17h-23
			v12h31v17h-49v-75h49v17h-31v12H781z"/>
	</g>
</g>
</svg>
