<?xml version="1.0" encoding="utf-8"?>
<!-- Generator: Adobe Illustrator 16.0.0, SVG Export Plug-In . SVG Version: 6.00 Build 0)  -->
<!DOCTYPE svg PUBLIC "-//W3C//DTD SVG 1.1//EN" "http://www.w3.org/Graphics/SVG/1.1/DTD/svg11.dtd">
<svg version="1.1" id="Layer_1" xmlns="http://www.w3.org/2000/svg" xmlns:xlink="http://www.w3.org/1999/xlink" x="0px" y="0px"
	 width="585px" height="159px" viewBox="0 0 585 159" enable-background="new 0 0 585 159" xml:space="preserve">
<g>
	<path fill="#2ECC71" d="M0,0v157h583V0H0z M85,17h19v27H85V17z M29,17h18v27H29V17z M113,138H19v-15.11l94,5.038V138z M113,122H19
		V48h7.212h5.037h17.64h37.792h20.158h5.036H113V122z M179,135h-12v-21h-15v21h-14V82h14v20h15V82h12V135z M224.843,135
		l-7.661-21.474l-10.68,0.241L198.777,135h-13.882l19.889-53h14.12l19.817,53H224.843z M250.661,116.01
		c0.479,1.163,1.616,2.184,2.47,3.062c0.855,0.879,2.081,1.574,3.21,2.085c1.129,0.51,2.455,0.766,3.736,0.766
		c1.279,0,2.535-0.256,3.653-0.766c1.12-0.511,2.126-1.206,2.967-2.085c0.84-0.877,1.521-1.053,2.01-2.215
		c0.489-1.162,0.75-0.856,0.75-2.856h12.928c0,3-0.541,4.844-1.619,7.466c-1.074,2.626-2.665,4.559-4.772,6.647
		c-2.103,2.088-4.504,4.394-7.197,5.509c-2.691,1.117-5.553,2.378-8.583,2.378h-0.078c-3.03,0-5.88-1.472-8.548-2.589
		c-2.667-1.115-5.078-3.176-7.233-5.264c-2.004-2.042-4.538-4.565-5.641-7.119c-1.102-2.55-2.714-5.469-2.714-8.295v-11.216
		c0-2.921,1.604-5.668,2.693-8.246c1.088-2.575,3.141-4.882,5.17-6.926c2.156-2.088,4.813-2.612,7.479-3.739
		c2.668-1.127,5.763-0.606,8.793-0.606h0.078c3.03,0,5.892-0.527,8.583,0.588c2.693,1.115,5.094,2.187,7.197,4.3
		c2.107,2.089,3.698,5.309,4.772,7.934c1.078,2.623,1.619,5.178,1.619,9.178h-12.928c0-3-0.245-3.681-0.734-4.855
		c-0.489-1.174-1.155-2.769-1.996-3.648c-0.84-0.878-1.813-1.857-2.917-2.367c-1.104-0.511-2.311-0.91-3.615-0.91
		c-1.281,0-2.487,0.187-3.618,0.696c-1.129,0.512-2.119,1.168-2.972,2.047c-0.855,0.878-2.465,1.884-2.944,3.045
		c-0.477,1.163-1.661,2.391-1.661,3.72v10.579C249,113.612,250.184,114.847,250.661,116.01z M327.248,135h-12.925L298,118.716V135
		h-13V82h13v13.39L314.395,82h12.926l-24.385,26.57L327.248,135z M366,94h-13v41h-12V94h-13V82h38V94z M385,135h-12V82h12V135z
		 M413.021,135l-19.974-53h12.893l13.605,36.946L433.068,82h12.891l-19.879,53H413.021z M476.728,135l-7.661-21.474l-10.677,0.241
		L450.663,135h-13.879l19.887-53h14.122l19.813,53H476.728z M523,94h-13v41h-13V94h-13V82h39V94z M562,94h-21v8h15v12h-15v9h21v12
		h-34V82h34V94z"/>
	<rect x="78.597" y="81.636" fill="#2ECC71" width="27.628" height="27.63"/>
	<rect x="39.914" y="81.636" fill="#2ECC71" width="27.632" height="27.63"/>
</g>
</svg>
